PathFileType	4	(X/Y/Z)	c:/Users/goper/Files/vsCode/490R/osim_files/C11/C11_RoM_01.trc
DataRate	CameraRate	NumFrames	NumMarkers	Units                	OrigDataRate	OrigDataStartFrame	OrigNumFrames
120.00	120.00	8	36	mm	120.0	549	2195
                Frame#	Time	LPSI			LASI			LTH1			LTH2			LTH3			LTH4			LLFE			LMFE			LSH1			LSH2			LSH3			LSH4			LLMA			LMMA			LCAL			LMTP			LTOE			LMTP			RPSI			RASI			RTH1			RTH2			RTH3			RTH4			RLFE			RMFE			RSH1			RSH2			RSH3			RSH4			RLMA			RMMA			RCAL			RMTP			RTOE			RMTP		
		X1	Y1	Z1	X2	Y2	Z2	X3	Y3	Z3	X4	Y4	Z4	X5	Y5	Z5	X6	Y6	Z6	X7	Y7	Z7	X8	Y8	Z8	X9	Y9	Z9	X10	Y10	Z10	X11	Y11	Z11	X12	Y12	Z12	X13	Y13	Z13	X14	Y14	Z14	X15	Y15	Z15	X16	Y16	Z16	X17	Y17	Z17	X18	Y18	Z18	X19	Y19	Z19	X20	Y20	Z20	X21	Y21	Z21	X22	Y22	Z22	X23	Y23	Z23	X24	Y24	Z24	X25	Y25	Z25	X26	Y26	Z26	X27	Y27	Z27	X28	Y28	Z28	X29	Y29	Z29	X30	Y30	Z30	X31	Y31	Z31	X32	Y32	Z32	X33	Y33	Z33	X34	Y34	Z34	X35	Y35	Z35	X36	Y36	Z36

549	4.56667	-346.97711	1025.58521	415.29520	-170.57784	1002.75092	347.68716	-251.75403	631.05951	272.65674	-241.47311	584.52106	273.21841	-192.02196	638.83868	264.72742	-190.53036	592.35547	269.56082	-227.86530	508.19928	272.28839	-202.00667	507.01306	379.59433	-287.60538	412.52823	260.59552	-292.89740	368.75751	257.73264	-226.98607	400.55707	252.85391	-240.57866	357.86313	251.57272	-311.06036	97.86987	295.66370	-276.38779	111.46621	387.77716	-368.21298	61.17704	351.85254	-203.48495	39.65535	254.79092	-127.50067	55.85826	319.63522	-164.95587	44.87262	367.94168	-342.17453	1035.36841	500.56689	-183.97452	991.45197	579.97809	-267.58990	622.96039	650.96277	-258.07721	580.10559	650.46484	-205.25424	629.21326	650.45197	-206.14207	586.14178	651.02704	-230.67439	517.85272	647.76532	-241.35655	486.09641	536.42401	-300.59033	416.70575	668.72968	-300.41617	370.52969	671.79388	-238.50113	409.12888	668.64984	-247.80652	362.75015	673.41101	-308.47974	99.63900	657.86523	-279.15762	106.05861	565.16455	-368.81158	58.21936	611.11908	-153.61325	53.58686	596.20490	-151.14018	66.36871	645.97589	-192.88919	39.44750	705.07391
550	4.57500	-347.22098	1025.34460	415.05026	-170.74355	1002.05890	347.53741	-250.56070	630.57562	272.38760	-240.20401	584.04401	273.01022	-190.78073	638.57788	264.41180	-189.34555	592.02789	269.38510	-226.26772	507.86325	272.16391	-200.49774	506.75134	379.37631	-286.06125	412.57645	260.43430	-291.66098	368.75900	257.60120	-225.59377	400.36383	252.73705	-239.45284	357.66028	251.49646	-310.96210	97.90144	295.64172	-276.29892	111.43911	387.79169	-368.09915	61.22658	351.87491	-203.48259	39.61546	254.75192	-127.41589	55.65509	319.60999	-164.89342	44.82711	367.94940	-342.32242	1035.10486	500.31152	-184.35582	990.78497	579.80414	-265.67041	622.43341	651.23102	-256.01730	579.65448	650.68866	-203.33217	628.97845	650.39923	-203.95018	585.95636	651.02209	-228.30519	517.45776	647.93866	-239.20096	485.72717	536.72314	-298.33804	416.70142	668.94043	-298.43610	370.63901	671.96552	-236.28233	408.79178	668.72314	-245.89117	362.47177	673.51886	-308.31247	99.51424	657.57013	-278.95407	105.96513	565.04974	-368.77701	58.36743	611.08362	-153.32512	53.39803	595.89978	-151.00961	66.05408	645.80359	-192.78485	39.37936	704.97687
551	4.58333	-347.40112	1025.09180	414.85330	-170.92754	1001.37933	347.43610	-249.49249	630.08173	272.16248	-238.97258	583.58350	272.78738	-189.76332	638.22900	263.97696	-188.02158	591.77081	268.94299	-224.79146	507.55331	271.93173	-198.71562	506.57468	379.28717	-285.23282	412.44031	260.54941	-290.43011	368.80356	257.44153	-224.26221	400.06458	252.59459	-238.11494	357.54800	251.28221	-310.87695	97.90803	295.59900	-276.19809	111.39335	387.80649	-368.00192	61.27690	351.87662	-203.47981	39.58470	254.70654	-127.35378	55.49812	319.56528	-164.82964	44.78648	367.95154	-342.53558	1034.69775	500.04135	-184.72275	989.91406	579.63568	-263.44467	621.83936	651.48401	-253.73808	579.01910	650.87585	-201.20897	628.70502	650.40857	-201.57565	585.57947	650.98950	-225.49989	517.00159	648.07275	-236.66493	485.34421	536.99609	-295.78415	416.73920	669.20551	-296.18408	370.57642	672.25641	-233.80641	408.42435	668.76978	-243.72881	362.10461	673.58356	-308.09811	99.75938	657.64471	-278.72061	105.88026	564.91547	-368.69965	58.50275	611.02191	-153.44069	52.81027	595.91473	-150.84570	65.68160	645.58429	-192.66678	39.29558	704.88953
552	4.59167	-347.62933	1024.77380	414.70737	-171.27361	1000.64575	347.33969	-248.40018	629.52924	271.73813	-237.67064	583.11920	272.41864	-188.66545	637.86151	263.52097	-186.74867	591.43982	268.59796	-223.33922	507.18417	271.64243	-197.07690	506.27750	379.02625	-283.26022	412.57785	260.06400	-289.29587	368.80405	257.27734	-222.89015	399.90393	252.36403	-237.08850	357.33673	251.10818	-310.83258	97.92765	295.57306	-276.10059	111.34443	387.80621	-367.92557	61.32986	351.88669	-203.47237	39.52443	254.69600	-127.26678	55.35439	319.54596	-164.73055	44.76534	367.96405	-342.76660	1034.15613	499.81595	-185.07547	989.01556	579.46033	-261.13443	621.06787	651.64337	-250.70921	578.18994	651.41608	-198.90569	628.35706	650.35266	-198.97867	585.26929	650.95282	-222.49651	516.40186	648.10309	-233.86658	484.97986	537.17194	-292.94250	416.63550	669.49786	-293.69827	370.58405	672.48737	-231.08481	407.93265	668.81317	-241.25528	361.73584	673.61157	-307.77817	99.82180	657.52405	-278.48187	105.79417	564.74536	-368.48953	58.60733	610.96118	-153.30579	52.33870	595.80048	-150.61668	65.36662	645.39520	-192.50725	39.20092	704.80304
553	4.60000	-347.86813	1024.41748	414.57278	-171.62981	999.82788	347.22360	-247.23097	628.98682	271.26804	-236.35838	582.61859	271.95197	-187.63843	637.51929	263.07178	-185.47603	591.15363	268.23770	-221.81050	506.85104	271.18243	-195.41206	506.00507	378.80331	-282.32556	412.43204	260.08023	-288.07620	368.81534	257.11447	-221.55879	399.65436	252.14291	-235.81093	357.14102	250.85277	-310.77841	97.96051	295.58273	-276.06610	111.29646	387.86536	-367.89868	61.44050	351.91238	-203.56960	39.32689	254.79944	-127.23086	55.22455	319.53409	-164.70392	44.71987	367.98672	-343.06668	1033.73279	499.65640	-185.43237	987.96588	579.32819	-258.70023	620.13593	651.93762	-247.94785	577.38702	651.57294	-196.49490	627.93060	650.33063	-196.28767	584.85394	650.88873	-219.25966	515.75641	648.11377	-230.93762	484.61823	537.32294	-290.10443	416.56393	669.78564	-291.10983	370.49527	672.76801	-228.36009	407.32202	668.82013	-238.77327	361.30902	673.66461	-307.52829	99.90133	657.36707	-278.26239	105.70837	564.59009	-368.38675	58.75735	610.87183	-152.95200	52.05244	595.49420	-150.42786	64.98583	645.20319	-192.43106	39.13292	704.73035
554	4.60833	-348.15860	1024.08801	414.48004	-171.96843	999.04065	347.17834	-246.03349	628.43457	270.88602	-234.85776	582.13385	271.49716	-186.31372	637.18787	262.69403	-184.03152	590.84259	267.84915	-220.20563	506.41840	270.96249	-193.57132	505.77798	378.56650	-280.87527	412.41714	259.83047	-286.82584	368.81433	256.88870	-220.08492	399.33038	251.88782	-234.62512	356.89182	250.64978	-310.72849	98.00411	295.60605	-275.92465	111.24422	387.91397	-367.81485	61.51981	351.96164	-203.53993	39.31461	254.80699	-127.15027	55.12520	319.51715	-164.63664	44.70550	367.99515	-343.31400	1033.24548	499.69220	-185.75211	986.83746	579.20160	-256.10339	619.22992	652.10895	-245.05122	576.49591	651.69122	-193.93187	627.49048	650.29510	-193.44283	584.34326	650.87970	-215.84148	515.11456	648.12042	-227.81305	484.19833	537.53101	-287.02002	416.50851	669.96741	-288.37222	370.40222	672.80322	-225.29073	406.85278	668.80078	-236.15292	360.84857	673.63708	-307.16574	100.00741	657.21411	-278.08908	105.61185	564.46045	-368.18668	58.90884	610.76208	-152.69385	51.76253	595.31842	-150.16623	64.62090	645.04944	-192.28458	39.08084	704.64948
555	4.61667	-348.47272	1023.61517	414.48816	-172.45027	998.03552	347.05481	-244.61980	627.82074	270.31161	-233.37152	581.55231	271.10187	-185.07033	636.81677	262.27280	-182.43825	590.57428	267.47150	-218.50710	505.99997	270.59473	-191.64906	505.41547	378.28329	-279.28314	412.28653	259.64120	-285.47351	368.74011	256.69687	-218.49832	399.00668	251.57307	-233.26593	356.60678	250.34802	-310.66541	98.01720	295.60498	-275.77344	111.22261	387.94861	-366.84024	61.23704	352.21808	-203.51524	39.26302	254.80739	-127.08936	54.99647	319.48831	-164.53723	44.68548	367.98962	-343.59167	1032.61963	499.80588	-186.04784	985.54724	579.11414	-253.44818	618.15625	652.31671	-242.07793	575.63379	651.86993	-191.37088	626.97961	650.30267	-190.56163	583.87909	650.86047	-212.38536	514.48676	648.17139	-224.59471	483.75601	537.73145	-283.86954	416.43555	670.15503	-285.56204	370.35965	672.96594	-222.21329	406.28741	668.81744	-233.39685	360.37830	673.66138	-306.85309	100.11938	657.09076	-277.83881	105.53906	564.27911	-367.96295	59.09653	610.64435	-152.46841	51.35930	595.20752	-149.90047	64.27686	644.92645	-192.15332	39.02995	704.57764
556	4.62500	-348.78406	1022.92419	414.56769	-173.10553	996.96222	346.96146	-243.15015	627.13550	269.77982	-231.63495	580.88800	270.60507	-183.64214	636.42242	261.86194	-180.70842	590.22894	267.03748	-216.62572	505.48126	270.27014	-189.61603	505.09753	377.94153	-277.51035	412.16882	259.32492	-283.92505	368.71201	256.39386	-216.98299	398.63144	251.27946	-231.90271	356.27997	250.06685	-310.55887	98.04652	295.57556	-275.64124	111.24886	387.94980	-367.64316	61.64221	352.06631	-203.50104	39.21432	254.77274	-127.06622	54.84527	319.43472	-164.52849	44.64775	367.96329	-343.71567	1031.89172	499.93723	-186.32738	984.18811	578.95685	-250.81883	617.24420	652.39746	-239.46640	574.85754	651.62714	-188.79579	626.43054	650.39783	-187.93973	583.88629	651.05737	-208.89333	513.84503	648.28394	-221.26451	483.27719	537.83612	-280.79663	416.39520	670.23962	-282.95566	370.42551	673.03418	-219.27127	405.72311	668.79858	-230.78867	359.92813	673.65045	-306.59314	100.28161	656.94757	-277.46500	105.44704	564.07404	-367.82086	59.38358	610.51703	-152.23373	50.87671	595.09381	-149.66011	63.84390	644.78131	-192.04037	38.97939	704.51361
